<svg width="160" height="40" viewBox="0 0 160 40" fill="none" xmlns="http://www.w3.org/2000/svg">
<g clip-path="url(#clip0_10_16)">
<path d="M17.874 31.4795L28.6777 25.2432L31.7959 30.6445L15.5918 40L12.4736 34.5986L0 12.9932L5.40137 9.875L17.874 31.4795ZM25.624 5.40137L38.0977 27.0068L32.6963 30.125L20.2227 8.51953L9.41992 14.7568L6.30176 9.35547L22.5049 0L25.624 5.40137Z" fill="#6366FA"/>
<path d="M46.0707 17.336H51.5907V20H42.7107V3.248H46.0707V17.336ZM66.0863 13.064C66.0863 13.544 66.0543 13.976 65.9903 14.36H56.2703C56.3503 15.32 56.6863 16.072 57.2783 16.616C57.8703 17.16 58.5983 17.432 59.4623 17.432C60.7103 17.432 61.5983 16.896 62.1263 15.824H65.7503C65.3663 17.104 64.6303 18.16 63.5423 18.992C62.4543 19.808 61.1183 20.216 59.5343 20.216C58.2543 20.216 57.1023 19.936 56.0783 19.376C55.0703 18.8 54.2783 17.992 53.7023 16.952C53.1423 15.912 52.8623 14.712 52.8623 13.352C52.8623 11.976 53.1423 10.768 53.7023 9.728C54.2623 8.688 55.0463 7.888 56.0543 7.328C57.0623 6.768 58.2223 6.488 59.5343 6.488C60.7983 6.488 61.9263 6.76 62.9183 7.304C63.9263 7.848 64.7023 8.624 65.2463 9.632C65.8063 10.624 66.0863 11.768 66.0863 13.064ZM62.6063 12.104C62.5903 11.24 62.2783 10.552 61.6703 10.04C61.0623 9.512 60.3183 9.248 59.4383 9.248C58.6063 9.248 57.9023 9.504 57.3263 10.016C56.7663 10.512 56.4223 11.208 56.2943 12.104H62.6063ZM67.6748 13.304C67.6748 11.96 67.9388 10.768 68.4668 9.728C69.0108 8.688 69.7388 7.888 70.6508 7.328C71.5788 6.768 72.6108 6.488 73.7468 6.488C74.7388 6.488 75.6028 6.688 76.3388 7.088C77.0908 7.488 77.6908 7.992 78.1388 8.6V6.704H81.5228V20H78.1388V18.056C77.7068 18.68 77.1068 19.2 76.3388 19.616C75.5868 20.016 74.7148 20.216 73.7228 20.216C72.6028 20.216 71.5788 19.928 70.6508 19.352C69.7388 18.776 69.0108 17.968 68.4668 16.928C67.9388 15.872 67.6748 14.664 67.6748 13.304ZM78.1388 13.352C78.1388 12.536 77.9788 11.84 77.6588 11.264C77.3388 10.672 76.9068 10.224 76.3628 9.92C75.8188 9.6 75.2348 9.44 74.6108 9.44C73.9868 9.44 73.4108 9.592 72.8828 9.896C72.3548 10.2 71.9228 10.648 71.5868 11.24C71.2668 11.816 71.1068 12.504 71.1068 13.304C71.1068 14.104 71.2668 14.808 71.5868 15.416C71.9228 16.008 72.3548 16.464 72.8828 16.784C73.4268 17.104 74.0028 17.264 74.6108 17.264C75.2348 17.264 75.8188 17.112 76.3628 16.808C76.9068 16.488 77.3388 16.04 77.6588 15.464C77.9788 14.872 78.1388 14.168 78.1388 13.352ZM83.9404 13.304C83.9404 11.96 84.2044 10.768 84.7324 9.728C85.2764 8.688 86.0124 7.888 86.9404 7.328C87.8684 6.768 88.9004 6.488 90.0364 6.488C90.9004 6.488 91.7244 6.68 92.5084 7.064C93.2924 7.432 93.9164 7.928 94.3804 8.552V2.24H97.7884V20H94.3804V18.032C93.9644 18.688 93.3804 19.216 92.6284 19.616C91.8764 20.016 91.0044 20.216 90.0124 20.216C88.8924 20.216 87.8684 19.928 86.9404 19.352C86.0124 18.776 85.2764 17.968 84.7324 16.928C84.2044 15.872 83.9404 14.664 83.9404 13.304ZM94.4044 13.352C94.4044 12.536 94.2444 11.84 93.9244 11.264C93.6044 10.672 93.1724 10.224 92.6284 9.92C92.0844 9.6 91.5004 9.44 90.8764 9.44C90.2524 9.44 89.6764 9.592 89.1484 9.896C88.6204 10.2 88.1884 10.648 87.8524 11.24C87.5324 11.816 87.3724 12.504 87.3724 13.304C87.3724 14.104 87.5324 14.808 87.8524 15.416C88.1884 16.008 88.6204 16.464 89.1484 16.784C89.6924 17.104 90.2684 17.264 90.8764 17.264C91.5004 17.264 92.0844 17.112 92.6284 16.808C93.1724 16.488 93.6044 16.04 93.9244 15.464C94.2444 14.872 94.4044 14.168 94.4044 13.352ZM110.149 17.336H115.669V20H106.789V3.248H110.149V17.336ZM119.508 5.12C118.916 5.12 118.42 4.936 118.02 4.568C117.636 4.184 117.444 3.712 117.444 3.152C117.444 2.592 117.636 2.128 118.02 1.76C118.42 1.376 118.916 1.184 119.508 1.184C120.1 1.184 120.588 1.376 120.972 1.76C121.372 2.128 121.572 2.592 121.572 3.152C121.572 3.712 121.372 4.184 120.972 4.568C120.588 4.936 120.1 5.12 119.508 5.12ZM121.164 6.704V20H117.804V6.704H121.164ZM128.396 9.464V15.896C128.396 16.344 128.5 16.672 128.708 16.88C128.932 17.072 129.3 17.168 129.812 17.168H131.372V20H129.26C126.428 20 125.012 18.624 125.012 15.872V9.464H123.428V6.704H125.012V3.416H128.396V6.704H131.372V9.464H128.396ZM146.149 13.064C146.149 13.544 146.117 13.976 146.053 14.36H136.333C136.413 15.32 136.749 16.072 137.341 16.616C137.933 17.16 138.661 17.432 139.525 17.432C140.773 17.432 141.661 16.896 142.189 15.824H145.813C145.429 17.104 144.693 18.16 143.605 18.992C142.517 19.808 141.181 20.216 139.597 20.216C138.317 20.216 137.165 19.936 136.141 19.376C135.133 18.8 134.341 17.992 133.765 16.952C133.205 15.912 132.925 14.712 132.925 13.352C132.925 11.976 133.205 10.768 133.765 9.728C134.325 8.688 135.109 7.888 136.117 7.328C137.125 6.768 138.285 6.488 139.597 6.488C140.861 6.488 141.989 6.76 142.981 7.304C143.989 7.848 144.765 8.624 145.309 9.632C145.869 10.624 146.149 11.768 146.149 13.064ZM142.669 12.104C142.653 11.24 142.341 10.552 141.733 10.04C141.125 9.512 140.381 9.248 139.501 9.248C138.669 9.248 137.965 9.504 137.389 10.016C136.829 10.512 136.485 11.208 136.357 12.104H142.669Z" fill="#6366FA"/>
<path d="M46.019 38.084C45.243 38.084 44.539 37.904 43.907 37.544C43.275 37.176 42.775 36.668 42.407 36.02C42.047 35.364 41.867 34.624 41.867 33.8C41.867 32.976 42.047 32.24 42.407 31.592C42.775 30.936 43.275 30.428 43.907 30.068C44.539 29.7 45.243 29.516 46.019 29.516C46.803 29.516 47.511 29.7 48.143 30.068C48.775 30.428 49.271 30.936 49.631 31.592C49.991 32.24 50.171 32.976 50.171 33.8C50.171 34.624 49.991 35.364 49.631 36.02C49.271 36.668 48.775 37.176 48.143 37.544C47.511 37.904 46.803 38.084 46.019 38.084ZM46.019 37.352C46.643 37.352 47.203 37.208 47.699 36.92C48.195 36.632 48.587 36.22 48.875 35.684C49.163 35.14 49.307 34.512 49.307 33.8C49.307 33.088 49.163 32.464 48.875 31.928C48.587 31.392 48.195 30.98 47.699 30.692C47.203 30.404 46.643 30.26 46.019 30.26C45.395 30.26 44.835 30.404 44.339 30.692C43.843 30.98 43.451 31.392 43.163 31.928C42.875 32.464 42.731 33.088 42.731 33.8C42.731 34.512 42.875 35.14 43.163 35.684C43.451 36.22 43.843 36.632 44.339 36.92C44.835 37.208 45.395 37.352 46.019 37.352ZM54.78 31.328C55.564 31.328 56.204 31.572 56.7 32.06C57.196 32.54 57.444 33.24 57.444 34.16V38H56.616V34.256C56.616 33.544 56.436 33 56.076 32.624C55.724 32.248 55.24 32.06 54.624 32.06C53.992 32.06 53.488 32.26 53.112 32.66C52.736 33.06 52.548 33.648 52.548 34.424V38H51.708V31.448H52.548V32.564C52.756 32.164 53.056 31.86 53.448 31.652C53.84 31.436 54.284 31.328 54.78 31.328ZM60.1418 29.12V38H59.3018V29.12H60.1418ZM67.444 31.448L63.556 41.084H62.68L63.952 37.964L61.264 31.448H62.188L64.42 37.04L66.58 31.448H67.444ZM80.516 31.448L78.464 38H77.624L75.812 32.504L74 38H73.148L71.096 31.448H71.948L73.58 37.148L75.416 31.448H76.256L78.068 37.16L79.688 31.448H80.516ZM84.7812 31.328C85.2772 31.328 85.7212 31.432 86.1132 31.64C86.5132 31.848 86.8252 32.168 87.0492 32.6C87.2812 33.024 87.3972 33.544 87.3972 34.16V38H86.5692V34.256C86.5692 33.544 86.3892 33 86.0292 32.624C85.6772 32.248 85.1932 32.06 84.5772 32.06C83.9452 32.06 83.4412 32.26 83.0652 32.66C82.6892 33.06 82.5012 33.648 82.5012 34.424V38H81.6612V29.12H82.5012V32.564C82.7092 32.172 83.0132 31.868 83.4132 31.652C83.8212 31.436 84.2772 31.328 84.7812 31.328ZM88.8709 34.712C88.8709 34.04 89.0029 33.452 89.2669 32.948C89.5389 32.436 89.9109 32.044 90.3829 31.772C90.8629 31.492 91.4029 31.352 92.0029 31.352C92.6269 31.352 93.1629 31.496 93.6109 31.784C94.0669 32.072 94.3949 32.44 94.5949 32.888V31.448H95.4349V38H94.5949V36.548C94.3869 36.996 94.0549 37.368 93.5989 37.664C93.1509 37.952 92.6149 38.096 91.9909 38.096C91.3989 38.096 90.8629 37.956 90.3829 37.676C89.9109 37.396 89.5389 37 89.2669 36.488C89.0029 35.976 88.8709 35.384 88.8709 34.712ZM94.5949 34.724C94.5949 34.196 94.4869 33.732 94.2709 33.332C94.0549 32.932 93.7589 32.624 93.3829 32.408C93.0149 32.192 92.6069 32.084 92.1589 32.084C91.6949 32.084 91.2789 32.188 90.9109 32.396C90.5429 32.604 90.2509 32.908 90.0349 33.308C89.8269 33.7 89.7229 34.168 89.7229 34.712C89.7229 35.248 89.8269 35.72 90.0349 36.128C90.2509 36.528 90.5429 36.836 90.9109 37.052C91.2789 37.26 91.6949 37.364 92.1589 37.364C92.6069 37.364 93.0149 37.256 93.3829 37.04C93.7589 36.824 94.0549 36.516 94.2709 36.116C94.4869 35.716 94.5949 35.252 94.5949 34.724ZM98.4446 32.156V36.224C98.4446 36.624 98.5206 36.9 98.6726 37.052C98.8246 37.204 99.0926 37.28 99.4766 37.28H100.245V38H99.3446C98.7526 38 98.3126 37.864 98.0246 37.592C97.7366 37.312 97.5926 36.856 97.5926 36.224V32.156H96.6806V31.448H97.5926V29.804H98.4446V31.448H100.245V32.156H98.4446ZM110.323 31.448L106.435 41.084H105.559L106.831 37.964L104.143 31.448H105.067L107.299 37.04L109.459 31.448H110.323ZM114.33 38.096C113.714 38.096 113.158 37.96 112.662 37.688C112.174 37.408 111.786 37.016 111.498 36.512C111.218 36 111.078 35.404 111.078 34.724C111.078 34.044 111.222 33.452 111.51 32.948C111.798 32.436 112.19 32.044 112.686 31.772C113.182 31.492 113.738 31.352 114.354 31.352C114.97 31.352 115.526 31.492 116.022 31.772C116.526 32.044 116.918 32.436 117.198 32.948C117.486 33.452 117.63 34.044 117.63 34.724C117.63 35.396 117.486 35.988 117.198 36.5C116.91 37.012 116.514 37.408 116.01 37.688C115.506 37.96 114.946 38.096 114.33 38.096ZM114.33 37.364C114.762 37.364 115.162 37.268 115.53 37.076C115.898 36.876 116.194 36.58 116.418 36.188C116.65 35.788 116.766 35.3 116.766 34.724C116.766 34.148 116.654 33.664 116.43 33.272C116.206 32.872 115.91 32.576 115.542 32.384C115.174 32.184 114.774 32.084 114.342 32.084C113.91 32.084 113.51 32.184 113.142 32.384C112.774 32.576 112.478 32.872 112.254 33.272C112.038 33.664 111.93 34.148 111.93 34.724C111.93 35.3 112.038 35.788 112.254 36.188C112.478 36.58 112.77 36.876 113.13 37.076C113.498 37.268 113.898 37.364 114.33 37.364ZM124.837 31.448V38H123.997V36.848C123.805 37.256 123.509 37.568 123.109 37.784C122.709 38 122.261 38.108 121.765 38.108C120.981 38.108 120.341 37.868 119.845 37.388C119.349 36.9 119.101 36.196 119.101 35.276V31.448H119.929V35.18C119.929 35.892 120.105 36.436 120.457 36.812C120.817 37.188 121.305 37.376 121.921 37.376C122.553 37.376 123.057 37.176 123.433 36.776C123.809 36.376 123.997 35.788 123.997 35.012V31.448H124.837ZM133.12 31.328C133.904 31.328 134.544 31.572 135.04 32.06C135.536 32.54 135.784 33.24 135.784 34.16V38H134.956V34.256C134.956 33.544 134.776 33 134.416 32.624C134.064 32.248 133.58 32.06 132.964 32.06C132.332 32.06 131.828 32.26 131.452 32.66C131.076 33.06 130.888 33.648 130.888 34.424V38H130.048V31.448H130.888V32.564C131.096 32.164 131.396 31.86 131.788 31.652C132.18 31.436 132.624 31.328 133.12 31.328ZM143.57 34.388C143.57 34.676 143.562 34.896 143.546 35.048H138.11C138.134 35.544 138.254 35.968 138.47 36.32C138.686 36.672 138.97 36.94 139.322 37.124C139.674 37.3 140.058 37.388 140.474 37.388C141.018 37.388 141.474 37.256 141.842 36.992C142.218 36.728 142.466 36.372 142.586 35.924H143.474C143.314 36.564 142.97 37.088 142.442 37.496C141.922 37.896 141.266 38.096 140.474 38.096C139.858 38.096 139.306 37.96 138.818 37.688C138.33 37.408 137.946 37.016 137.666 36.512C137.394 36 137.258 35.404 137.258 34.724C137.258 34.044 137.394 33.448 137.666 32.936C137.938 32.424 138.318 32.032 138.806 31.76C139.294 31.488 139.85 31.352 140.474 31.352C141.098 31.352 141.642 31.488 142.106 31.76C142.578 32.032 142.938 32.4 143.186 32.864C143.442 33.32 143.57 33.828 143.57 34.388ZM142.718 34.364C142.726 33.876 142.626 33.46 142.418 33.116C142.218 32.772 141.942 32.512 141.59 32.336C141.238 32.16 140.854 32.072 140.438 32.072C139.814 32.072 139.282 32.272 138.842 32.672C138.402 33.072 138.158 33.636 138.11 34.364H142.718ZM151.034 34.388C151.034 34.676 151.026 34.896 151.01 35.048H145.574C145.598 35.544 145.718 35.968 145.934 36.32C146.15 36.672 146.434 36.94 146.786 37.124C147.138 37.3 147.522 37.388 147.938 37.388C148.482 37.388 148.938 37.256 149.306 36.992C149.682 36.728 149.93 36.372 150.05 35.924H150.938C150.778 36.564 150.434 37.088 149.906 37.496C149.386 37.896 148.73 38.096 147.938 38.096C147.322 38.096 146.77 37.96 146.282 37.688C145.794 37.408 145.41 37.016 145.13 36.512C144.858 36 144.722 35.404 144.722 34.724C144.722 34.044 144.858 33.448 145.13 32.936C145.402 32.424 145.782 32.032 146.27 31.76C146.758 31.488 147.314 31.352 147.938 31.352C148.562 31.352 149.106 31.488 149.57 31.76C150.042 32.032 150.402 32.4 150.65 32.864C150.906 33.32 151.034 33.828 151.034 34.388ZM150.182 34.364C150.19 33.876 150.09 33.46 149.882 33.116C149.682 32.772 149.406 32.512 149.054 32.336C148.702 32.16 148.318 32.072 147.902 32.072C147.278 32.072 146.746 32.272 146.306 32.672C145.866 33.072 145.622 33.636 145.574 34.364H150.182ZM152.187 34.712C152.187 34.04 152.323 33.452 152.595 32.948C152.867 32.436 153.239 32.044 153.711 31.772C154.191 31.492 154.731 31.352 155.331 31.352C155.907 31.352 156.427 31.492 156.891 31.772C157.355 32.052 157.695 32.416 157.911 32.864V29.12H158.751V38H157.911V36.536C157.711 36.992 157.383 37.368 156.927 37.664C156.471 37.952 155.935 38.096 155.319 38.096C154.719 38.096 154.179 37.956 153.699 37.676C153.227 37.396 152.855 37 152.583 36.488C152.319 35.976 152.187 35.384 152.187 34.712ZM157.911 34.724C157.911 34.196 157.803 33.732 157.587 33.332C157.371 32.932 157.075 32.624 156.699 32.408C156.331 32.192 155.923 32.084 155.475 32.084C155.011 32.084 154.595 32.188 154.227 32.396C153.859 32.604 153.567 32.908 153.351 33.308C153.143 33.7 153.039 34.168 153.039 34.712C153.039 35.248 153.143 35.72 153.351 36.128C153.567 36.528 153.859 36.836 154.227 37.052C154.595 37.26 155.011 37.364 155.475 37.364C155.923 37.364 156.331 37.256 156.699 37.04C157.075 36.824 157.371 36.516 157.587 36.116C157.803 35.716 157.911 35.252 157.911 34.724Z" fill="#6366FA" fill-opacity="0.8"/>
</g>
<defs>
<clipPath id="clip0_10_16">
<rect width="160" height="40" fill="white"/>
</clipPath>
</defs>
</svg>
