<svg width="120" height="120" viewBox="0 0 120 120" fill="none" xmlns="http://www.w3.org/2000/svg">
<g clip-path="url(#clip0_10_27)">
<path d="M57.5156 59.0244L77.7715 47.3311L83.6182 57.459L53.2354 75L47.3887 64.8721L24 24.3623L34.1279 18.5156L57.5156 59.0244ZM95.4336 50.6367L85.3057 56.4844L61.918 15.9746L72.0449 10.127L95.4336 50.6367ZM72.0449 10.127L41.6631 27.6689L35.8154 17.541L66.1982 0L72.0449 10.127Z" fill="#6366FA"/>
<path d="M12.0707 97.336H17.5907V100H8.71069V83.248H12.0707V97.336ZM32.0863 93.064C32.0863 93.544 32.0543 93.976 31.9903 94.36H22.2703C22.3503 95.32 22.6863 96.072 23.2783 96.616C23.8703 97.16 24.5983 97.432 25.4623 97.432C26.7103 97.432 27.5983 96.896 28.1263 95.824H31.7503C31.3663 97.104 30.6303 98.16 29.5423 98.992C28.4543 99.808 27.1183 100.216 25.5343 100.216C24.2543 100.216 23.1023 99.936 22.0783 99.376C21.0703 98.8 20.2783 97.992 19.7023 96.952C19.1423 95.912 18.8623 94.712 18.8623 93.352C18.8623 91.976 19.1423 90.768 19.7023 89.728C20.2623 88.688 21.0463 87.888 22.0543 87.328C23.0623 86.768 24.2223 86.488 25.5343 86.488C26.7983 86.488 27.9263 86.76 28.9183 87.304C29.9263 87.848 30.7023 88.624 31.2463 89.632C31.8063 90.624 32.0863 91.768 32.0863 93.064ZM28.6063 92.104C28.5903 91.24 28.2783 90.552 27.6703 90.04C27.0623 89.512 26.3183 89.248 25.4383 89.248C24.6063 89.248 23.9023 89.504 23.3263 90.016C22.7663 90.512 22.4223 91.208 22.2943 92.104H28.6063ZM33.6748 93.304C33.6748 91.96 33.9388 90.768 34.4668 89.728C35.0108 88.688 35.7388 87.888 36.6508 87.328C37.5788 86.768 38.6108 86.488 39.7468 86.488C40.7388 86.488 41.6028 86.688 42.3388 87.088C43.0908 87.488 43.6908 87.992 44.1388 88.6V86.704H47.5228V100H44.1388V98.056C43.7068 98.68 43.1068 99.2 42.3388 99.616C41.5868 100.016 40.7148 100.216 39.7228 100.216C38.6028 100.216 37.5788 99.928 36.6508 99.352C35.7388 98.776 35.0108 97.968 34.4668 96.928C33.9388 95.872 33.6748 94.664 33.6748 93.304ZM44.1388 93.352C44.1388 92.536 43.9788 91.84 43.6588 91.264C43.3388 90.672 42.9068 90.224 42.3628 89.92C41.8188 89.6 41.2348 89.44 40.6108 89.44C39.9868 89.44 39.4108 89.592 38.8828 89.896C38.3548 90.2 37.9228 90.648 37.5868 91.24C37.2668 91.816 37.1068 92.504 37.1068 93.304C37.1068 94.104 37.2668 94.808 37.5868 95.416C37.9228 96.008 38.3548 96.464 38.8828 96.784C39.4268 97.104 40.0028 97.264 40.6108 97.264C41.2348 97.264 41.8188 97.112 42.3628 96.808C42.9068 96.488 43.3388 96.04 43.6588 95.464C43.9788 94.872 44.1388 94.168 44.1388 93.352ZM49.9404 93.304C49.9404 91.96 50.2044 90.768 50.7324 89.728C51.2764 88.688 52.0124 87.888 52.9404 87.328C53.8684 86.768 54.9004 86.488 56.0364 86.488C56.9004 86.488 57.7244 86.68 58.5084 87.064C59.2924 87.432 59.9164 87.928 60.3804 88.552V82.24H63.7884V100H60.3804V98.032C59.9644 98.688 59.3804 99.216 58.6284 99.616C57.8764 100.016 57.0044 100.216 56.0124 100.216C54.8924 100.216 53.8684 99.928 52.9404 99.352C52.0124 98.776 51.2764 97.968 50.7324 96.928C50.2044 95.872 49.9404 94.664 49.9404 93.304ZM60.4044 93.352C60.4044 92.536 60.2444 91.84 59.9244 91.264C59.6044 90.672 59.1724 90.224 58.6284 89.92C58.0844 89.6 57.5004 89.44 56.8764 89.44C56.2524 89.44 55.6764 89.592 55.1484 89.896C54.6204 90.2 54.1884 90.648 53.8524 91.24C53.5324 91.816 53.3724 92.504 53.3724 93.304C53.3724 94.104 53.5324 94.808 53.8524 95.416C54.1884 96.008 54.6204 96.464 55.1484 96.784C55.6924 97.104 56.2684 97.264 56.8764 97.264C57.5004 97.264 58.0844 97.112 58.6284 96.808C59.1724 96.488 59.6044 96.04 59.9244 95.464C60.2444 94.872 60.4044 94.168 60.4044 93.352ZM76.1488 97.336H81.6688V100H72.7888V83.248H76.1488V97.336ZM85.5084 85.12C84.9164 85.12 84.4204 84.936 84.0204 84.568C83.6364 84.184 83.4444 83.712 83.4444 83.152C83.4444 82.592 83.6364 82.128 84.0204 81.76C84.4204 81.376 84.9164 81.184 85.5084 81.184C86.1004 81.184 86.5884 81.376 86.9724 81.76C87.3724 82.128 87.5724 82.592 87.5724 83.152C87.5724 83.712 87.3724 84.184 86.9724 84.568C86.5884 84.936 86.1004 85.12 85.5084 85.12ZM87.1644 86.704V100H83.8044V86.704H87.1644ZM94.3961 89.464V95.896C94.3961 96.344 94.5001 96.672 94.7081 96.88C94.9321 97.072 95.3001 97.168 95.8121 97.168H97.3721V100H95.2601C92.4281 100 91.0121 98.624 91.0121 95.872V89.464H89.4281V86.704H91.0121V83.416H94.3961V86.704H97.3721V89.464H94.3961ZM112.149 93.064C112.149 93.544 112.117 93.976 112.053 94.36H102.333C102.413 95.32 102.749 96.072 103.341 96.616C103.933 97.16 104.661 97.432 105.525 97.432C106.773 97.432 107.661 96.896 108.189 95.824H111.813C111.429 97.104 110.693 98.16 109.605 98.992C108.517 99.808 107.181 100.216 105.597 100.216C104.317 100.216 103.165 99.936 102.141 99.376C101.133 98.8 100.341 97.992 99.7648 96.952C99.2048 95.912 98.9248 94.712 98.9248 93.352C98.9248 91.976 99.2048 90.768 99.7648 89.728C100.325 88.688 101.109 87.888 102.117 87.328C103.125 86.768 104.285 86.488 105.597 86.488C106.861 86.488 107.989 86.76 108.981 87.304C109.989 87.848 110.765 88.624 111.309 89.632C111.869 90.624 112.149 91.768 112.149 93.064ZM108.669 92.104C108.653 91.24 108.341 90.552 107.733 90.04C107.125 89.512 106.381 89.248 105.501 89.248C104.669 89.248 103.965 89.504 103.389 90.016C102.829 90.512 102.485 91.208 102.357 92.104H108.669Z" fill="#6366FA"/>
<path d="M5.51902 118.084C4.74302 118.084 4.03902 117.904 3.40702 117.544C2.77502 117.176 2.27502 116.668 1.90702 116.02C1.54702 115.364 1.36702 114.624 1.36702 113.8C1.36702 112.976 1.54702 112.24 1.90702 111.592C2.27502 110.936 2.77502 110.428 3.40702 110.068C4.03902 109.7 4.74302 109.516 5.51902 109.516C6.30302 109.516 7.01102 109.7 7.64302 110.068C8.27502 110.428 8.77102 110.936 9.13102 111.592C9.49102 112.24 9.67102 112.976 9.67102 113.8C9.67102 114.624 9.49102 115.364 9.13102 116.02C8.77102 116.668 8.27502 117.176 7.64302 117.544C7.01102 117.904 6.30302 118.084 5.51902 118.084ZM5.51902 117.352C6.14302 117.352 6.70302 117.208 7.19902 116.92C7.69502 116.632 8.08702 116.22 8.37502 115.684C8.66302 115.14 8.80702 114.512 8.80702 113.8C8.80702 113.088 8.66302 112.464 8.37502 111.928C8.08702 111.392 7.69502 110.98 7.19902 110.692C6.70302 110.404 6.14302 110.26 5.51902 110.26C4.89502 110.26 4.33502 110.404 3.83902 110.692C3.34302 110.98 2.95102 111.392 2.66302 111.928C2.37502 112.464 2.23102 113.088 2.23102 113.8C2.23102 114.512 2.37502 115.14 2.66302 115.684C2.95102 116.22 3.34302 116.632 3.83902 116.92C4.33502 117.208 4.89502 117.352 5.51902 117.352ZM14.28 111.328C15.064 111.328 15.704 111.572 16.2 112.06C16.696 112.54 16.944 113.24 16.944 114.16V118H16.116V114.256C16.116 113.544 15.936 113 15.576 112.624C15.224 112.248 14.74 112.06 14.124 112.06C13.492 112.06 12.988 112.26 12.612 112.66C12.236 113.06 12.048 113.648 12.048 114.424V118H11.208V111.448H12.048V112.564C12.256 112.164 12.556 111.86 12.948 111.652C13.34 111.436 13.784 111.328 14.28 111.328ZM19.6418 109.12V118H18.8018V109.12H19.6418ZM26.944 111.448L23.056 121.084H22.18L23.452 117.964L20.764 111.448H21.688L23.92 117.04L26.08 111.448H26.944ZM40.016 111.448L37.964 118H37.124L35.312 112.504L33.5 118H32.648L30.596 111.448H31.448L33.08 117.148L34.916 111.448H35.756L37.568 117.16L39.188 111.448H40.016ZM44.2812 111.328C44.7772 111.328 45.2212 111.432 45.6132 111.64C46.0132 111.848 46.3252 112.168 46.5492 112.6C46.7812 113.024 46.8972 113.544 46.8972 114.16V118H46.0692V114.256C46.0692 113.544 45.8892 113 45.5292 112.624C45.1772 112.248 44.6932 112.06 44.0772 112.06C43.4452 112.06 42.9412 112.26 42.5652 112.66C42.1892 113.06 42.0012 113.648 42.0012 114.424V118H41.1612V109.12H42.0012V112.564C42.2092 112.172 42.5132 111.868 42.9132 111.652C43.3212 111.436 43.7772 111.328 44.2812 111.328ZM48.3709 114.712C48.3709 114.04 48.5029 113.452 48.7669 112.948C49.0389 112.436 49.4109 112.044 49.8829 111.772C50.3629 111.492 50.9029 111.352 51.5029 111.352C52.1269 111.352 52.6629 111.496 53.1109 111.784C53.5669 112.072 53.8949 112.44 54.0949 112.888V111.448H54.9349V118H54.0949V116.548C53.8869 116.996 53.5549 117.368 53.0989 117.664C52.6509 117.952 52.1149 118.096 51.4909 118.096C50.8989 118.096 50.3629 117.956 49.8829 117.676C49.4109 117.396 49.0389 117 48.7669 116.488C48.5029 115.976 48.3709 115.384 48.3709 114.712ZM54.0949 114.724C54.0949 114.196 53.9869 113.732 53.7709 113.332C53.5549 112.932 53.2589 112.624 52.8829 112.408C52.5149 112.192 52.1069 112.084 51.6589 112.084C51.1949 112.084 50.7789 112.188 50.4109 112.396C50.0429 112.604 49.7509 112.908 49.5349 113.308C49.3269 113.7 49.2229 114.168 49.2229 114.712C49.2229 115.248 49.3269 115.72 49.5349 116.128C49.7509 116.528 50.0429 116.836 50.4109 117.052C50.7789 117.26 51.1949 117.364 51.6589 117.364C52.1069 117.364 52.5149 117.256 52.8829 117.04C53.2589 116.824 53.5549 116.516 53.7709 116.116C53.9869 115.716 54.0949 115.252 54.0949 114.724ZM57.9446 112.156V116.224C57.9446 116.624 58.0206 116.9 58.1726 117.052C58.3246 117.204 58.5926 117.28 58.9766 117.28H59.7446V118H58.8446C58.2526 118 57.8126 117.864 57.5246 117.592C57.2366 117.312 57.0926 116.856 57.0926 116.224V112.156H56.1806V111.448H57.0926V109.804H57.9446V111.448H59.7446V112.156H57.9446ZM69.8229 111.448L65.9349 121.084H65.0589L66.3309 117.964L63.6429 111.448H64.5669L66.7989 117.04L68.9589 111.448H69.8229ZM73.83 118.096C73.214 118.096 72.658 117.96 72.162 117.688C71.674 117.408 71.286 117.016 70.998 116.512C70.718 116 70.578 115.404 70.578 114.724C70.578 114.044 70.722 113.452 71.01 112.948C71.298 112.436 71.69 112.044 72.186 111.772C72.682 111.492 73.238 111.352 73.854 111.352C74.47 111.352 75.026 111.492 75.522 111.772C76.026 112.044 76.418 112.436 76.698 112.948C76.986 113.452 77.13 114.044 77.13 114.724C77.13 115.396 76.986 115.988 76.698 116.5C76.41 117.012 76.014 117.408 75.51 117.688C75.006 117.96 74.446 118.096 73.83 118.096ZM73.83 117.364C74.262 117.364 74.662 117.268 75.03 117.076C75.398 116.876 75.694 116.58 75.918 116.188C76.15 115.788 76.266 115.3 76.266 114.724C76.266 114.148 76.154 113.664 75.93 113.272C75.706 112.872 75.41 112.576 75.042 112.384C74.674 112.184 74.274 112.084 73.842 112.084C73.41 112.084 73.01 112.184 72.642 112.384C72.274 112.576 71.978 112.872 71.754 113.272C71.538 113.664 71.43 114.148 71.43 114.724C71.43 115.3 71.538 115.788 71.754 116.188C71.978 116.58 72.27 116.876 72.63 117.076C72.998 117.268 73.398 117.364 73.83 117.364ZM84.3372 111.448V118H83.4972V116.848C83.3052 117.256 83.0092 117.568 82.6092 117.784C82.2092 118 81.7612 118.108 81.2652 118.108C80.4812 118.108 79.8412 117.868 79.3452 117.388C78.8492 116.9 78.6012 116.196 78.6012 115.276V111.448H79.4292V115.18C79.4292 115.892 79.6052 116.436 79.9572 116.812C80.3172 117.188 80.8052 117.376 81.4212 117.376C82.0532 117.376 82.5572 117.176 82.9332 116.776C83.3092 116.376 83.4972 115.788 83.4972 115.012V111.448H84.3372ZM92.6199 111.328C93.4039 111.328 94.0439 111.572 94.5399 112.06C95.0359 112.54 95.2839 113.24 95.2839 114.16V118H94.4559V114.256C94.4559 113.544 94.2759 113 93.9159 112.624C93.5639 112.248 93.0799 112.06 92.4639 112.06C91.8319 112.06 91.3279 112.26 90.9519 112.66C90.5759 113.06 90.3879 113.648 90.3879 114.424V118H89.5479V111.448H90.3879V112.564C90.5959 112.164 90.8959 111.86 91.2879 111.652C91.6799 111.436 92.1239 111.328 92.6199 111.328ZM103.07 114.388C103.07 114.676 103.062 114.896 103.046 115.048H97.6096C97.6336 115.544 97.7536 115.968 97.9696 116.32C98.1856 116.672 98.4696 116.94 98.8216 117.124C99.1736 117.3 99.5576 117.388 99.9736 117.388C100.518 117.388 100.974 117.256 101.342 116.992C101.718 116.728 101.966 116.372 102.086 115.924H102.974C102.814 116.564 102.47 117.088 101.942 117.496C101.422 117.896 100.766 118.096 99.9736 118.096C99.3576 118.096 98.8056 117.96 98.3176 117.688C97.8296 117.408 97.4456 117.016 97.1656 116.512C96.8936 116 96.7576 115.404 96.7576 114.724C96.7576 114.044 96.8936 113.448 97.1656 112.936C97.4376 112.424 97.8176 112.032 98.3056 111.76C98.7936 111.488 99.3496 111.352 99.9736 111.352C100.598 111.352 101.142 111.488 101.606 111.76C102.078 112.032 102.438 112.4 102.686 112.864C102.942 113.32 103.07 113.828 103.07 114.388ZM102.218 114.364C102.226 113.876 102.126 113.46 101.918 113.116C101.718 112.772 101.442 112.512 101.09 112.336C100.738 112.16 100.354 112.072 99.9376 112.072C99.3136 112.072 98.7816 112.272 98.3416 112.672C97.9016 113.072 97.6576 113.636 97.6096 114.364H102.218ZM110.534 114.388C110.534 114.676 110.526 114.896 110.51 115.048H105.074C105.098 115.544 105.218 115.968 105.434 116.32C105.65 116.672 105.934 116.94 106.286 117.124C106.638 117.3 107.022 117.388 107.438 117.388C107.982 117.388 108.438 117.256 108.806 116.992C109.182 116.728 109.43 116.372 109.55 115.924H110.438C110.278 116.564 109.934 117.088 109.406 117.496C108.886 117.896 108.23 118.096 107.438 118.096C106.822 118.096 106.27 117.96 105.782 117.688C105.294 117.408 104.91 117.016 104.63 116.512C104.358 116 104.222 115.404 104.222 114.724C104.222 114.044 104.358 113.448 104.63 112.936C104.902 112.424 105.282 112.032 105.77 111.76C106.258 111.488 106.814 111.352 107.438 111.352C108.062 111.352 108.606 111.488 109.07 111.76C109.542 112.032 109.902 112.4 110.15 112.864C110.406 113.32 110.534 113.828 110.534 114.388ZM109.682 114.364C109.69 113.876 109.59 113.46 109.382 113.116C109.182 112.772 108.906 112.512 108.554 112.336C108.202 112.16 107.818 112.072 107.402 112.072C106.778 112.072 106.246 112.272 105.806 112.672C105.366 113.072 105.122 113.636 105.074 114.364H109.682ZM111.687 114.712C111.687 114.04 111.823 113.452 112.095 112.948C112.367 112.436 112.739 112.044 113.211 111.772C113.691 111.492 114.231 111.352 114.831 111.352C115.407 111.352 115.927 111.492 116.391 111.772C116.855 112.052 117.195 112.416 117.411 112.864V109.12H118.251V118H117.411V116.536C117.211 116.992 116.883 117.368 116.427 117.664C115.971 117.952 115.435 118.096 114.819 118.096C114.219 118.096 113.679 117.956 113.199 117.676C112.727 117.396 112.355 117 112.083 116.488C111.819 115.976 111.687 115.384 111.687 114.712ZM117.411 114.724C117.411 114.196 117.303 113.732 117.087 113.332C116.871 112.932 116.575 112.624 116.199 112.408C115.831 112.192 115.423 112.084 114.975 112.084C114.511 112.084 114.095 112.188 113.727 112.396C113.359 112.604 113.067 112.908 112.851 113.308C112.643 113.7 112.539 114.168 112.539 114.712C112.539 115.248 112.643 115.72 112.851 116.128C113.067 116.528 113.359 116.836 113.727 117.052C114.095 117.26 114.511 117.364 114.975 117.364C115.423 117.364 115.831 117.256 116.199 117.04C116.575 116.824 116.871 116.516 117.087 116.116C117.303 115.716 117.411 115.252 117.411 114.724Z" fill="#6366FA" fill-opacity="0.8"/>
</g>
<defs>
<clipPath id="clip0_10_27">
<rect width="120" height="120" fill="white"/>
</clipPath>
</defs>
</svg>
